<?xml version="1.0" standalone="no"?>
<!DOCTYPE svg PUBLIC "-//W3C//DTD SVG 20010904//EN"
 "http://www.w3.org/TR/2001/REC-SVG-20010904/DTD/svg10.dtd">
<svg version="1.0" xmlns="http://www.w3.org/2000/svg"
 width="4096.000000pt" height="4096.000000pt" viewBox="0 0 4096.000000 4096.000000"
 preserveAspectRatio="xMidYMid meet">

<g transform="translate(0.000000,4096.000000) scale(0.100000,-0.100000)"
fill="#000000" stroke="none">
<path d="M11428 40944 c-351 -63 -631 -319 -728 -664 -17 -61 -4064 -26050
-4057 -26056 4 -4 10102 18097 10100 18105 -5 19 -4350 8164 -4380 8211 -141
215 -363 360 -620 405 -104 18 -212 18 -315 -1z"/>
<path d="M20345 35189 c-247 -36 -487 -187 -627 -394 -26 -39 -3087 -5519
-6804 -12180 -3716 -6660 -6785 -12161 -6820 -12222 -34 -62 -61 -113 -60
-113 6 0 18361 18471 18364 18480 3 9 -3106 5964 -3141 6015 -213 311 -554
466 -912 414z"/>
<path d="M30439 32570 c-160 -20 -332 -90 -455 -185 -81 -62 -24326 -24467
-24316 -24476 9 -9 13349 -7527 13467 -7590 773 -412 1732 -422 2523 -25 97
49 13622 7603 13635 7616 8 7 -3818 23827 -3849 23958 -62 271 -274 522 -534
633 -138 59 -329 87 -471 69z"/>
</g>
</svg>
